<?xml version="1.0" standalone="no"?>
<!DOCTYPE svg PUBLIC "-//W3C//DTD SVG 20010904//EN"
 "http://www.w3.org/TR/2001/REC-SVG-20010904/DTD/svg10.dtd">
<svg version="1.0" xmlns="http://www.w3.org/2000/svg"
 width="90.000000pt" height="90.000000pt" viewBox="0 0 90.000000 90.000000"
 preserveAspectRatio="xMidYMid meet">

<g transform="translate(0.000000,90.000000) scale(0.100000,-0.100000)"
fill="#000000" stroke="none">
<path d="M402 757 l-42 -43 -1 -144 c0 -80 -4 -166 -7 -193 l-7 -47 -105 65
c-57 36 -109 65 -115 65 -6 0 -26 -13 -45 -30 -29 -25 -32 -31 -20 -40 92 -61
390 -237 394 -232 9 9 7 642 -2 642 -4 0 -27 -19 -50 -43z"/>
<path d="M550 507 c0 -50 2 -55 53 -105 52 -51 54 -52 112 -52 l60 0 -105 105
c-58 58 -108 105 -112 105 -5 0 -8 -24 -8 -53z"/>
</g>
</svg>
